<svg width="32" height="32" viewBox="0 0 32 32" fill="none" xmlns="http://www.w3.org/2000/svg">
<rect width="32" height="32" rx="1.75" fill="#54A09B"/>
<path d="M16.156 23.7808C15.0138 23.7808 13.9903 23.5953 13.0855 23.2245C12.1807 22.8537 11.4538 22.3048 10.905 21.578C10.371 20.8512 10.0892 19.976 10.0595 18.9525H14.109C14.1683 19.531 14.3686 19.976 14.7098 20.2875C15.0509 20.5842 15.4959 20.7325 16.0448 20.7325C16.6084 20.7325 17.0534 20.6064 17.3798 20.3543C17.7061 20.0872 17.8693 19.7238 17.8693 19.264C17.8693 18.8783 17.7358 18.5594 17.4688 18.3072C17.2166 18.0551 16.8977 17.8474 16.512 17.6842C16.1412 17.5211 15.6072 17.3357 14.91 17.128C13.9013 16.8165 13.0781 16.505 12.4403 16.1935C11.8024 15.882 11.2536 15.4222 10.7938 14.814C10.3339 14.2058 10.104 13.4122 10.104 12.4332C10.104 10.9796 10.6306 9.84483 11.6838 9.029C12.7369 8.19833 14.109 7.783 15.8 7.783C17.5207 7.783 18.9076 8.19833 19.9608 9.029C21.0139 9.84483 21.5776 10.987 21.6518 12.4555H17.5355C17.5058 11.9512 17.3204 11.5581 16.9793 11.2762C16.6381 10.9796 16.2005 10.8312 15.6665 10.8312C15.2067 10.8312 14.8358 10.9573 14.554 11.2095C14.2722 11.4468 14.1313 11.7954 14.1313 12.2552C14.1313 12.7596 14.3686 13.1527 14.8432 13.4345C15.3179 13.7163 16.0596 14.0204 17.0683 14.3467C18.0769 14.6879 18.8928 15.0142 19.5158 15.3257C20.1536 15.6372 20.7024 16.0897 21.1623 16.683C21.6221 17.2763 21.852 18.0402 21.852 18.9747C21.852 19.8647 21.6221 20.6732 21.1623 21.4C20.7173 22.1268 20.0646 22.7053 19.2043 23.1355C18.3439 23.5657 17.3278 23.7808 16.156 23.7808Z" fill="white"/>
</svg>
